<?xml version="1.0" encoding="utf-8" standalone="no"?>
<!DOCTYPE svg PUBLIC "-//W3C//DTD SVG 1.1//EN"
  "http://www.w3.org/Graphics/SVG/1.1/DTD/svg11.dtd">
<svg xmlns:xlink="http://www.w3.org/1999/xlink" width="504pt" height="252pt" viewBox="0 0 504 252" xmlns="http://www.w3.org/2000/svg" version="1.1">
 <metadata>
  <rdf:RDF xmlns:dc="http://purl.org/dc/elements/1.1/" xmlns:cc="http://creativecommons.org/ns#" xmlns:rdf="http://www.w3.org/1999/02/22-rdf-syntax-ns#">
   <cc:Work>
    <dc:type rdf:resource="http://purl.org/dc/dcmitype/StillImage"/>
    <dc:date>2024-11-04T10:37:43.983300</dc:date>
    <dc:format>image/svg+xml</dc:format>
    <dc:creator>
     <cc:Agent>
      <dc:title>Matplotlib v3.8.4, https://matplotlib.org/</dc:title>
     </cc:Agent>
    </dc:creator>
   </cc:Work>
  </rdf:RDF>
 </metadata>
 <defs>
  <style type="text/css">*{stroke-linejoin: round; stroke-linecap: butt}</style>
 </defs>
 <g id="figure_1">
  <g id="patch_1">
   <path d="M 0 252 
L 504 252 
L 504 0 
L 0 0 
z
" style="fill: #ffffff"/>
  </g>
  <g id="axes_1">
   <g id="patch_2">
    <path d="M 49.28 106.515 
L 491.04 106.515 
L 491.04 27.61125 
L 49.28 27.61125 
z
" style="fill: #ffffff"/>
   </g>
   <g id="matplotlib.axis_1">
    <g id="xtick_1">
     <g id="line2d_1">
      <path d="M 51.005625 106.515 
L 51.005625 27.61125 
" clip-path="url(#p9162d4a86e)" style="fill: none; stroke-dasharray: 1,1.65; stroke-dashoffset: 0; stroke: #808080"/>
     </g>
     <g id="line2d_2">
      <defs>
       <path id="me2aa8a4432" d="M 0 0 
L 0 6 
" style="stroke: #262626; stroke-width: 1.25"/>
      </defs>
      <g>
       <use xlink:href="#me2aa8a4432" x="51.005625" y="106.515" style="fill: #262626; stroke: #262626; stroke-width: 1.25"/>
      </g>
     </g>
    </g>
    <g id="xtick_2">
     <g id="line2d_3">
      <path d="M 137.286875 106.515 
L 137.286875 27.61125 
" clip-path="url(#p9162d4a86e)" style="fill: none; stroke-dasharray: 1,1.65; stroke-dashoffset: 0; stroke: #808080"/>
     </g>
     <g id="line2d_4">
      <g>
       <use xlink:href="#me2aa8a4432" x="137.286875" y="106.515" style="fill: #262626; stroke: #262626; stroke-width: 1.25"/>
      </g>
     </g>
    </g>
    <g id="xtick_3">
     <g id="line2d_5">
      <path d="M 223.568125 106.515 
L 223.568125 27.61125 
" clip-path="url(#p9162d4a86e)" style="fill: none; stroke-dasharray: 1,1.65; stroke-dashoffset: 0; stroke: #808080"/>
     </g>
     <g id="line2d_6">
      <g>
       <use xlink:href="#me2aa8a4432" x="223.568125" y="106.515" style="fill: #262626; stroke: #262626; stroke-width: 1.25"/>
      </g>
     </g>
    </g>
    <g id="xtick_4">
     <g id="line2d_7">
      <path d="M 309.849375 106.515 
L 309.849375 27.61125 
" clip-path="url(#p9162d4a86e)" style="fill: none; stroke-dasharray: 1,1.65; stroke-dashoffset: 0; stroke: #808080"/>
     </g>
     <g id="line2d_8">
      <g>
       <use xlink:href="#me2aa8a4432" x="309.849375" y="106.515" style="fill: #262626; stroke: #262626; stroke-width: 1.25"/>
      </g>
     </g>
    </g>
    <g id="xtick_5">
     <g id="line2d_9">
      <path d="M 396.130625 106.515 
L 396.130625 27.61125 
" clip-path="url(#p9162d4a86e)" style="fill: none; stroke-dasharray: 1,1.65; stroke-dashoffset: 0; stroke: #808080"/>
     </g>
     <g id="line2d_10">
      <g>
       <use xlink:href="#me2aa8a4432" x="396.130625" y="106.515" style="fill: #262626; stroke: #262626; stroke-width: 1.25"/>
      </g>
     </g>
    </g>
    <g id="xtick_6">
     <g id="line2d_11">
      <path d="M 482.411875 106.515 
L 482.411875 27.61125 
" clip-path="url(#p9162d4a86e)" style="fill: none; stroke-dasharray: 1,1.65; stroke-dashoffset: 0; stroke: #808080"/>
     </g>
     <g id="line2d_12">
      <g>
       <use xlink:href="#me2aa8a4432" x="482.411875" y="106.515" style="fill: #262626; stroke: #262626; stroke-width: 1.25"/>
      </g>
     </g>
    </g>
   </g>
   <g id="matplotlib.axis_2">
    <g id="ytick_1">
     <g id="line2d_13">
      <path d="M 49.28 96.496529 
L 491.04 96.496529 
" clip-path="url(#p9162d4a86e)" style="fill: none; stroke-dasharray: 1,1.65; stroke-dashoffset: 0; stroke: #808080"/>
     </g>
     <g id="line2d_14">
      <defs>
       <path id="m36c8f918a8" d="M 0 0 
L -6 0 
" style="stroke: #262626; stroke-width: 1.25"/>
      </defs>
      <g>
       <use xlink:href="#m36c8f918a8" x="49.28" y="96.496529" style="fill: #262626; stroke: #262626; stroke-width: 1.25"/>
      </g>
     </g>
     <g id="text_1">
      <!-- −0.05 -->
      <g style="fill: #262626" transform="translate(12.995 100.252857) scale(0.11 -0.11)">
       <defs>
        <path id="STIXGeneral-Regular-2212" d="M 3974 1408 
L 410 1408 
L 410 1830 
L 3974 1830 
L 3974 1408 
z
" transform="scale(0.015625)"/>
        <path id="STIXGeneral-Regular-30" d="M 3046 2112 
Q 3046 1683 2963 1302 
Q 2880 922 2717 602 
Q 2554 282 2266 96 
Q 1978 -90 1600 -90 
Q 1210 -90 915 108 
Q 621 307 461 640 
Q 301 973 227 1350 
Q 154 1728 154 2150 
Q 154 2746 301 3222 
Q 448 3699 790 4012 
Q 1133 4326 1626 4326 
Q 2253 4326 2649 3712 
Q 3046 3098 3046 2112 
z
M 2432 2080 
Q 2432 3091 2217 3625 
Q 2003 4160 1587 4160 
Q 1190 4160 979 3622 
Q 768 3085 768 2106 
Q 768 1120 979 598 
Q 1190 77 1600 77 
Q 2003 77 2217 598 
Q 2432 1120 2432 2080 
z
" transform="scale(0.015625)"/>
        <path id="STIXGeneral-Regular-2e" d="M 1158 275 
Q 1158 134 1052 32 
Q 947 -70 800 -70 
Q 653 -70 550 32 
Q 448 134 448 281 
Q 448 429 553 534 
Q 659 640 806 640 
Q 947 640 1052 531 
Q 1158 422 1158 275 
z
" transform="scale(0.015625)"/>
        <path id="STIXGeneral-Regular-35" d="M 2803 4358 
L 2573 3814 
Q 2534 3731 2400 3731 
L 1158 3731 
L 902 3187 
Q 1606 3053 1920 2896 
Q 2234 2739 2502 2368 
Q 2726 2061 2726 1555 
Q 2726 1094 2576 780 
Q 2426 467 2099 224 
Q 1664 -90 1011 -90 
Q 646 -90 422 19 
Q 198 128 198 307 
Q 198 550 486 550 
Q 717 550 960 352 
Q 1210 147 1414 147 
Q 1747 147 2012 480 
Q 2278 813 2278 1229 
Q 2278 1843 1850 2189 
Q 1293 2637 486 2637 
Q 410 2637 410 2688 
L 416 2720 
L 1114 4237 
L 2438 4237 
Q 2547 4237 2608 4269 
Q 2669 4301 2746 4403 
L 2803 4358 
z
" transform="scale(0.015625)"/>
       </defs>
       <use xlink:href="#STIXGeneral-Regular-2212"/>
       <use xlink:href="#STIXGeneral-Regular-30" x="68.499985"/>
       <use xlink:href="#STIXGeneral-Regular-2e" x="118.499969"/>
       <use xlink:href="#STIXGeneral-Regular-30" x="143.499954"/>
       <use xlink:href="#STIXGeneral-Regular-35" x="193.499939"/>
      </g>
     </g>
    </g>
    <g id="ytick_2">
     <g id="line2d_15">
      <path d="M 49.28 68.283894 
L 491.04 68.283894 
" clip-path="url(#p9162d4a86e)" style="fill: none; stroke-dasharray: 1,1.65; stroke-dashoffset: 0; stroke: #808080"/>
     </g>
     <g id="line2d_16">
      <g>
       <use xlink:href="#m36c8f918a8" x="49.28" y="68.283894" style="fill: #262626; stroke: #262626; stroke-width: 1.25"/>
      </g>
     </g>
     <g id="text_2">
      <!-- 0.00 -->
      <g style="fill: #262626" transform="translate(20.53 72.040223) scale(0.11 -0.11)">
       <use xlink:href="#STIXGeneral-Regular-30"/>
       <use xlink:href="#STIXGeneral-Regular-2e" x="49.999985"/>
       <use xlink:href="#STIXGeneral-Regular-30" x="74.999969"/>
       <use xlink:href="#STIXGeneral-Regular-30" x="124.999954"/>
      </g>
     </g>
    </g>
    <g id="ytick_3">
     <g id="line2d_17">
      <path d="M 49.28 40.07126 
L 491.04 40.07126 
" clip-path="url(#p9162d4a86e)" style="fill: none; stroke-dasharray: 1,1.65; stroke-dashoffset: 0; stroke: #808080"/>
     </g>
     <g id="line2d_18">
      <g>
       <use xlink:href="#m36c8f918a8" x="49.28" y="40.07126" style="fill: #262626; stroke: #262626; stroke-width: 1.25"/>
      </g>
     </g>
     <g id="text_3">
      <!-- 0.05 -->
      <g style="fill: #262626" transform="translate(20.53 43.827588) scale(0.11 -0.11)">
       <use xlink:href="#STIXGeneral-Regular-30"/>
       <use xlink:href="#STIXGeneral-Regular-2e" x="49.999985"/>
       <use xlink:href="#STIXGeneral-Regular-30" x="74.999969"/>
       <use xlink:href="#STIXGeneral-Regular-35" x="124.999954"/>
      </g>
     </g>
    </g>
   </g>
   <g id="PolyCollection_1"/>
   <g id="line2d_19">
    <path d="M 51.005625 51.050465 
L 52.73125 58.468561 
L 54.456875 78.20699 
L 56.1825 65.460943 
L 57.908125 64.184192 
L 59.63375 70.114395 
L 61.359375 53.699429 
L 63.085 81.1463 
L 64.810625 80.895613 
L 66.53625 65.542216 
L 68.261875 74.886037 
L 69.9875 81.784847 
L 71.713125 71.696097 
L 73.43875 70.741082 
L 75.164375 68.971388 
L 76.89 49.223788 
L 78.615625 64.085449 
L 80.34125 70.158392 
L 82.066875 63.226734 
L 83.7925 69.928344 
L 85.518125 83.866326 
L 87.24375 78.934785 
L 88.969375 85.150879 
L 90.695 99.838048 
L 92.420625 46.289191 
L 94.14625 71.244473 
L 95.871875 77.199043 
L 97.5975 65.21343 
L 99.323125 72.524806 
L 101.04875 84.865094 
L 102.774375 82.106484 
L 104.5 85.396219 
L 106.225625 51.823629 
L 107.95125 78.606422 
L 109.676875 49.488653 
L 111.4025 78.386467 
L 113.128125 74.26189 
L 114.85375 84.359983 
L 116.579375 82.945683 
L 118.305 66.404387 
L 120.030625 72.331577 
L 121.75625 61.464153 
L 123.481875 52.863925 
L 125.2075 67.208634 
L 126.933125 63.467976 
L 128.65875 66.223406 
L 130.384375 73.484913 
L 132.11 63.74775 
L 133.835625 57.361023 
L 135.56125 77.413644 
L 137.286875 94.86282 
L 139.0125 63.307514 
L 140.738125 80.737155 
L 142.46375 74.722127 
L 144.189375 90.266797 
L 145.915 51.30274 
L 147.640625 61.788666 
L 149.36625 67.50614 
L 151.091875 62.221009 
L 152.8175 73.354685 
L 154.543125 67.153683 
L 156.26875 55.163171 
L 157.994375 62.792531 
L 159.72 62.912465 
L 161.445625 69.570969 
L 163.17125 71.071836 
L 164.896875 66.108219 
L 166.6225 76.764303 
L 168.348125 69.111139 
L 170.07375 48.148658 
L 171.799375 60.414242 
L 173.525 69.796408 
L 175.250625 63.952593 
L 176.97625 60.754826 
L 178.701875 45.224524 
L 180.4275 65.504749 
L 182.153125 68.283894 
L 183.87875 74.476946 
L 185.604375 62.212865 
L 187.33 68.161872 
L 189.055625 68.283894 
L 190.78125 69.516626 
L 192.506875 71.007697 
L 194.2325 67.167816 
L 195.958125 65.504447 
L 197.68375 42.103364 
L 199.409375 62.897229 
L 201.135 70.677821 
L 202.860625 61.827761 
L 204.58625 76.556154 
L 206.311875 68.930082 
L 208.0375 65.238224 
L 209.763125 57.746415 
L 211.48875 71.158861 
L 213.214375 64.778102 
L 214.94 68.16832 
L 216.665625 63.209397 
L 218.39125 80.854431 
L 220.116875 61.016927 
L 221.8425 63.661661 
L 223.568125 66.751526 
L 225.29375 69.474451 
L 227.019375 68.171392 
L 228.745 64.604532 
L 230.470625 83.032793 
L 232.19625 69.093889 
L 233.921875 58.907633 
L 235.6475 68.283894 
L 237.373125 102.928466 
L 239.09875 59.374758 
L 240.824375 81.209955 
L 242.55 77.212169 
L 244.275625 62.233452 
L 246.00125 63.942458 
L 247.726875 76.941418 
L 249.4525 75.444282 
L 251.178125 63.415898 
L 252.90375 62.229752 
L 254.629375 66.99354 
L 256.355 68.283894 
L 258.080625 68.283894 
L 259.80625 70.680038 
L 261.531875 75.598062 
L 263.2575 70.409238 
L 264.983125 68.283894 
L 266.70875 68.283894 
L 268.434375 89.405047 
L 270.16 59.125275 
L 271.885625 68.283894 
L 273.61125 74.457691 
L 275.336875 78.004854 
L 277.0625 72.442795 
L 278.788125 66.102523 
L 280.51375 56.910473 
L 282.239375 83.433335 
L 283.965 73.021293 
L 285.690625 77.817197 
L 287.41625 53.547724 
L 289.141875 82.815064 
L 290.8675 61.03939 
L 292.593125 50.01368 
L 294.31875 72.468261 
L 296.044375 69.727431 
L 297.77 68.481795 
L 299.495625 82.344474 
L 301.22125 55.806601 
L 302.946875 69.60468 
L 304.6725 73.534495 
L 306.398125 84.67563 
L 308.12375 63.493894 
L 309.849375 63.93842 
L 311.575 92.677727 
L 313.300625 68.001625 
L 315.02625 69.486462 
L 316.751875 85.445442 
L 318.4775 57.738046 
L 320.203125 50.045991 
L 321.92875 67.453399 
L 323.654375 31.197784 
L 325.38 80.397338 
L 327.105625 63.605165 
L 328.83125 60.072622 
L 330.556875 73.87419 
L 332.2825 84.323762 
L 334.008125 64.464836 
L 335.73375 54.497758 
L 337.459375 57.441834 
L 339.185 61.54818 
L 340.910625 62.065136 
L 342.63625 69.908575 
L 344.361875 40.534546 
L 346.0875 55.487245 
L 347.813125 64.795762 
L 349.53875 62.287852 
L 351.264375 84.749065 
L 352.99 69.289507 
L 354.715625 55.478015 
L 356.44125 71.471549 
L 358.166875 65.790078 
L 359.8925 65.454493 
L 361.618125 76.347672 
L 363.34375 69.571115 
L 365.069375 61.530924 
L 366.795 67.300022 
L 368.520625 89.171381 
L 370.24625 68.283894 
L 371.971875 68.283894 
L 373.6975 61.848463 
L 375.423125 59.696747 
L 377.14875 69.278056 
L 378.874375 70.684374 
L 380.6 58.996805 
L 382.325625 82.181285 
L 384.05125 60.902241 
L 385.776875 73.295144 
L 387.5025 62.251326 
L 389.228125 68.523535 
L 390.95375 73.046401 
L 392.679375 61.963407 
L 394.405 54.854397 
L 396.130625 73.097581 
L 397.85625 64.876579 
L 399.581875 51.993622 
L 401.3075 66.634091 
L 403.033125 76.290013 
L 404.75875 70.418678 
L 406.484375 74.03519 
L 408.21 68.458779 
L 409.935625 70.800732 
L 411.66125 58.686104 
L 413.386875 68.283894 
L 415.1125 73.848902 
L 416.838125 84.655033 
L 418.56375 84.032996 
L 420.289375 68.283894 
L 422.015 71.995886 
L 423.740625 68.719995 
L 425.46625 67.847794 
L 427.191875 74.778225 
L 428.9175 73.645796 
L 430.643125 69.045975 
L 432.36875 68.283894 
L 434.094375 65.55917 
L 435.82 74.253872 
L 437.545625 71.999064 
L 439.27125 57.210976 
L 440.996875 68.158107 
L 442.7225 59.284607 
L 444.448125 66.240746 
L 446.17375 68.283894 
L 447.899375 73.434599 
L 449.625 68.346132 
L 451.350625 61.713684 
L 453.07625 74.294218 
L 454.801875 69.40645 
L 456.5275 80.652028 
L 459.97875 59.396345 
L 461.704375 79.351829 
L 463.43 78.198923 
L 465.155625 80.977877 
L 466.88125 79.903386 
L 468.606875 72.737056 
L 470.3325 49.476785 
L 472.058125 83.728949 
L 473.78375 51.509695 
L 475.509375 50.960346 
L 477.235 72.483092 
L 478.960625 62.286067 
L 480.68625 63.80884 
L 480.68625 63.80884 
" clip-path="url(#p9162d4a86e)" style="fill: none; stroke: #653700; stroke-width: 0.75; stroke-linecap: round"/>
   </g>
   <g id="patch_3">
    <path d="M 49.28 106.515 
L 49.28 27.61125 
" style="fill: none; stroke: #262626; stroke-width: 1.25; stroke-linejoin: miter; stroke-linecap: square"/>
   </g>
   <g id="patch_4">
    <path d="M 491.04 106.515 
L 491.04 27.61125 
" style="fill: none; stroke: #262626; stroke-width: 1.25; stroke-linejoin: miter; stroke-linecap: square"/>
   </g>
   <g id="patch_5">
    <path d="M 49.28 106.515 
L 491.04 106.515 
" style="fill: none; stroke: #262626; stroke-width: 1.25; stroke-linejoin: miter; stroke-linecap: square"/>
   </g>
   <g id="patch_6">
    <path d="M 49.28 27.61125 
L 491.04 27.61125 
" style="fill: none; stroke: #262626; stroke-width: 1.25; stroke-linejoin: miter; stroke-linecap: square"/>
   </g>
   <g id="text_4">
    <!-- O:AND from 2015-07-10 to 2016-06-24 -->
    <g style="fill: #262626" transform="translate(172.840938 21.61125) scale(0.12 -0.12)">
     <defs>
      <path id="STIXGeneral-Regular-4f" d="M 4403 2118 
Q 4403 1133 3820 521 
Q 3238 -90 2310 -90 
Q 1376 -90 797 524 
Q 218 1139 218 2138 
Q 218 3110 797 3718 
Q 1376 4326 2310 4326 
Q 3245 4326 3824 3702 
Q 4403 3078 4403 2118 
z
M 3674 2157 
Q 3674 2701 3520 3133 
Q 3366 3565 3091 3795 
Q 2733 4096 2304 4096 
Q 1760 4096 1389 3667 
Q 1184 3437 1065 3011 
Q 947 2586 947 2125 
Q 947 960 1523 429 
Q 1837 141 2317 141 
Q 2816 141 3142 448 
Q 3674 960 3674 2157 
z
" transform="scale(0.015625)"/>
      <path id="STIXGeneral-Regular-3a" d="M 1123 2832 
Q 1229 2726 1229 2579 
Q 1229 2432 1126 2329 
Q 1024 2227 877 2227 
Q 730 2227 624 2332 
Q 518 2438 518 2579 
Q 518 2733 620 2835 
Q 723 2938 877 2938 
Q 1018 2938 1123 2832 
z
M 1229 282 
Q 1229 141 1126 35 
Q 1024 -70 877 -70 
Q 730 -70 624 35 
Q 518 141 518 282 
Q 518 435 620 537 
Q 723 640 877 640 
Q 1018 640 1123 534 
Q 1229 429 1229 282 
z
" transform="scale(0.015625)"/>
      <path id="STIXGeneral-Regular-41" d="M 4525 0 
L 2893 0 
L 2893 122 
Q 3149 122 3245 179 
Q 3334 224 3334 333 
Q 3334 499 3213 781 
L 2950 1382 
L 1274 1382 
L 979 653 
Q 922 506 922 384 
Q 922 237 1027 179 
Q 1133 122 1370 122 
L 1370 0 
L 96 0 
L 96 122 
Q 365 147 486 316 
Q 608 486 902 1190 
L 2221 4314 
L 2349 4314 
L 3923 710 
Q 4064 378 4176 262 
Q 4288 147 4525 122 
L 4525 0 
z
M 2861 1645 
L 2118 3405 
L 1382 1645 
L 2861 1645 
z
" transform="scale(0.015625)"/>
      <path id="STIXGeneral-Regular-4e" d="M 4525 4237 
L 4525 4115 
Q 4198 4083 4102 4000 
Q 4000 3910 3958 3756 
Q 3917 3603 3917 3245 
L 3917 -70 
L 3802 -70 
L 979 3443 
L 979 960 
Q 979 474 1088 323 
Q 1197 173 1574 122 
L 1574 0 
L 77 0 
L 77 122 
Q 474 166 586 310 
Q 698 454 698 960 
L 698 3776 
Q 531 3981 416 4048 
Q 301 4115 77 4115 
L 77 4237 
L 1165 4237 
L 3635 1146 
L 3635 3322 
Q 3635 3808 3514 3949 
Q 3437 4032 3344 4061 
Q 3251 4090 3008 4115 
L 3008 4237 
L 4525 4237 
z
" transform="scale(0.015625)"/>
      <path id="STIXGeneral-Regular-44" d="M 102 4237 
L 1830 4237 
Q 3078 4237 3750 3654 
Q 4384 3110 4384 2138 
Q 4384 966 3514 410 
Q 2880 0 1901 0 
L 102 0 
L 102 122 
Q 474 147 570 252 
Q 666 358 666 736 
L 666 3520 
Q 666 3891 570 3990 
Q 474 4090 102 4115 
L 102 4237 
z
M 1318 3731 
L 1318 538 
Q 1318 365 1379 301 
Q 1440 237 1626 237 
Q 2125 237 2432 307 
Q 2739 378 3021 570 
Q 3686 1018 3686 2099 
Q 3686 3027 3078 3558 
Q 2803 3802 2476 3901 
Q 2150 4000 1658 4000 
Q 1472 4000 1395 3942 
Q 1318 3885 1318 3731 
z
" transform="scale(0.015625)"/>
      <path id="STIXGeneral-Regular-20" transform="scale(0.015625)"/>
      <path id="STIXGeneral-Regular-66" d="M 134 2880 
L 659 2880 
Q 666 3264 710 3478 
Q 755 3693 883 3910 
Q 1152 4371 1786 4371 
Q 2074 4371 2262 4259 
Q 2451 4147 2451 3974 
Q 2451 3866 2374 3789 
Q 2298 3712 2182 3712 
Q 2029 3712 1894 3942 
Q 1741 4192 1555 4192 
Q 1197 4192 1197 3622 
L 1197 2880 
L 1978 2880 
L 1978 2675 
L 1197 2675 
L 1197 666 
Q 1197 307 1299 208 
Q 1402 109 1792 96 
L 1792 0 
L 128 0 
L 128 96 
Q 474 115 566 214 
Q 659 314 659 666 
L 659 2675 
L 134 2675 
L 134 2880 
z
" transform="scale(0.015625)"/>
      <path id="STIXGeneral-Regular-72" d="M 1024 2931 
L 1024 2342 
Q 1267 2688 1430 2816 
Q 1594 2944 1792 2944 
Q 1958 2944 2051 2854 
Q 2144 2765 2144 2605 
Q 2144 2470 2077 2393 
Q 2010 2317 1894 2317 
Q 1773 2317 1638 2445 
Q 1536 2541 1472 2541 
Q 1338 2541 1181 2355 
Q 1024 2170 1024 2016 
L 1024 576 
Q 1024 301 1133 205 
Q 1242 109 1568 96 
L 1568 0 
L 32 0 
L 32 96 
Q 339 154 412 224 
Q 486 294 486 538 
L 486 2138 
Q 486 2349 438 2435 
Q 390 2522 269 2522 
Q 166 2522 45 2496 
L 45 2598 
Q 448 2726 992 2944 
L 1024 2931 
z
" transform="scale(0.015625)"/>
      <path id="STIXGeneral-Regular-6f" d="M 3008 1478 
Q 3008 806 2608 371 
Q 2208 -64 1568 -64 
Q 979 -64 582 368 
Q 186 800 186 1459 
Q 186 2125 582 2534 
Q 979 2944 1626 2944 
Q 2221 2944 2614 2537 
Q 3008 2131 3008 1478 
z
M 2432 1306 
Q 2432 2035 2112 2445 
Q 1856 2765 1504 2765 
Q 1171 2765 966 2493 
Q 762 2221 762 1747 
Q 762 928 1101 435 
Q 1318 115 1677 115 
Q 2029 115 2230 432 
Q 2432 749 2432 1306 
z
" transform="scale(0.015625)"/>
      <path id="STIXGeneral-Regular-6d" d="M 4960 0 
L 3565 0 
L 3565 96 
Q 3834 122 3907 208 
Q 3981 294 3981 576 
L 3981 1894 
Q 3981 2278 3869 2444 
Q 3757 2611 3488 2611 
Q 3264 2611 3107 2521 
Q 2950 2432 2803 2221 
L 2803 608 
Q 2803 301 2896 201 
Q 2989 102 3264 96 
L 3264 0 
L 1830 0 
L 1830 96 
Q 2112 115 2189 188 
Q 2266 262 2266 550 
L 2266 1901 
Q 2266 2611 1850 2611 
Q 1670 2611 1468 2531 
Q 1267 2451 1171 2336 
Q 1088 2240 1088 2227 
L 1088 448 
Q 1088 243 1177 176 
Q 1267 109 1523 96 
L 1523 0 
L 102 0 
L 102 96 
Q 371 102 460 195 
Q 550 288 550 563 
L 550 2150 
Q 550 2387 499 2480 
Q 448 2573 326 2573 
Q 230 2573 122 2547 
L 122 2656 
Q 557 2778 1011 2944 
L 1062 2925 
L 1062 2451 
L 1075 2451 
Q 1363 2752 1584 2848 
Q 1805 2944 2054 2944 
Q 2560 2944 2733 2406 
Q 3232 2944 3776 2944 
Q 4518 2944 4518 1792 
L 4518 493 
Q 4518 282 4582 202 
Q 4646 122 4794 109 
L 4960 96 
L 4960 0 
z
" transform="scale(0.015625)"/>
      <path id="STIXGeneral-Regular-32" d="M 3034 877 
L 2688 0 
L 186 0 
L 186 77 
L 1325 1286 
Q 1773 1754 1965 2144 
Q 2157 2534 2157 2950 
Q 2157 3379 1920 3616 
Q 1683 3853 1267 3853 
Q 922 3853 720 3673 
Q 518 3494 326 3021 
L 192 3053 
Q 301 3648 630 3987 
Q 960 4326 1523 4326 
Q 2054 4326 2380 4006 
Q 2707 3686 2707 3200 
Q 2707 2477 1888 1613 
L 832 486 
L 2330 486 
Q 2541 486 2665 569 
Q 2790 653 2944 915 
L 3034 877 
z
" transform="scale(0.015625)"/>
      <path id="STIXGeneral-Regular-31" d="M 2522 0 
L 755 0 
L 755 96 
Q 1107 115 1235 227 
Q 1363 339 1363 608 
L 1363 3482 
Q 1363 3795 1171 3795 
Q 1082 3795 883 3718 
L 710 3654 
L 710 3744 
L 1856 4326 
L 1914 4307 
L 1914 486 
Q 1914 275 2042 185 
Q 2170 96 2522 96 
L 2522 0 
z
" transform="scale(0.015625)"/>
      <path id="STIXGeneral-Regular-2d" d="M 1824 1242 
L 250 1242 
L 250 1645 
L 1824 1645 
L 1824 1242 
z
" transform="scale(0.015625)"/>
      <path id="STIXGeneral-Regular-37" d="M 2874 4134 
L 1517 -51 
L 1101 -51 
L 2368 3763 
L 992 3763 
Q 717 3763 582 3667 
Q 448 3571 243 3238 
L 128 3296 
L 512 4237 
L 2874 4237 
L 2874 4134 
z
" transform="scale(0.015625)"/>
      <path id="STIXGeneral-Regular-74" d="M 1702 493 
L 1786 422 
Q 1478 -64 1011 -64 
Q 448 -64 448 749 
L 448 2675 
L 109 2675 
Q 83 2694 83 2720 
Q 83 2771 192 2842 
Q 435 2982 813 3526 
Q 826 3546 874 3606 
Q 922 3667 941 3706 
Q 986 3706 986 3622 
L 986 2880 
L 1632 2880 
L 1632 2675 
L 986 2675 
L 986 845 
Q 986 538 1062 403 
Q 1139 269 1318 269 
Q 1510 269 1702 493 
z
" transform="scale(0.015625)"/>
      <path id="STIXGeneral-Regular-36" d="M 2854 4378 
L 2867 4275 
Q 2112 4154 1606 3664 
Q 1101 3174 973 2451 
Q 1344 2739 1786 2739 
Q 2349 2739 2672 2380 
Q 2995 2022 2995 1402 
Q 2995 774 2669 378 
Q 2291 -90 1651 -90 
Q 870 -90 518 557 
Q 218 1107 218 1786 
Q 218 2835 915 3552 
Q 1312 3962 1731 4131 
Q 2150 4301 2854 4378 
z
M 2419 1203 
Q 2419 2445 1555 2445 
Q 1235 2445 1024 2275 
Q 813 2106 813 1702 
Q 813 954 1046 522 
Q 1280 90 1722 90 
Q 2061 90 2240 394 
Q 2419 698 2419 1203 
z
" transform="scale(0.015625)"/>
      <path id="STIXGeneral-Regular-34" d="M 3027 1069 
L 2368 1069 
L 2368 0 
L 1869 0 
L 1869 1069 
L 77 1069 
L 77 1478 
L 2086 4326 
L 2368 4326 
L 2368 1478 
L 3027 1478 
L 3027 1069 
z
M 1869 1478 
L 1869 3674 
L 333 1478 
L 1869 1478 
z
" transform="scale(0.015625)"/>
     </defs>
     <use xlink:href="#STIXGeneral-Regular-4f"/>
     <use xlink:href="#STIXGeneral-Regular-3a" x="72.199982"/>
     <use xlink:href="#STIXGeneral-Regular-41" x="99.999969"/>
     <use xlink:href="#STIXGeneral-Regular-4e" x="172.199951"/>
     <use xlink:href="#STIXGeneral-Regular-44" x="244.399933"/>
     <use xlink:href="#STIXGeneral-Regular-20" x="316.599915"/>
     <use xlink:href="#STIXGeneral-Regular-66" x="341.599899"/>
     <use xlink:href="#STIXGeneral-Regular-72" x="374.899887"/>
     <use xlink:href="#STIXGeneral-Regular-6f" x="408.199875"/>
     <use xlink:href="#STIXGeneral-Regular-6d" x="458.19986"/>
     <use xlink:href="#STIXGeneral-Regular-20" x="535.999847"/>
     <use xlink:href="#STIXGeneral-Regular-32" x="560.999832"/>
     <use xlink:href="#STIXGeneral-Regular-30" x="610.999817"/>
     <use xlink:href="#STIXGeneral-Regular-31" x="660.999802"/>
     <use xlink:href="#STIXGeneral-Regular-35" x="710.999786"/>
     <use xlink:href="#STIXGeneral-Regular-2d" x="760.999771"/>
     <use xlink:href="#STIXGeneral-Regular-30" x="794.299759"/>
     <use xlink:href="#STIXGeneral-Regular-37" x="844.299744"/>
     <use xlink:href="#STIXGeneral-Regular-2d" x="894.299728"/>
     <use xlink:href="#STIXGeneral-Regular-31" x="927.599716"/>
     <use xlink:href="#STIXGeneral-Regular-30" x="977.599701"/>
     <use xlink:href="#STIXGeneral-Regular-20" x="1027.599686"/>
     <use xlink:href="#STIXGeneral-Regular-74" x="1052.59967"/>
     <use xlink:href="#STIXGeneral-Regular-6f" x="1080.399658"/>
     <use xlink:href="#STIXGeneral-Regular-20" x="1130.399643"/>
     <use xlink:href="#STIXGeneral-Regular-32" x="1155.399628"/>
     <use xlink:href="#STIXGeneral-Regular-30" x="1205.399612"/>
     <use xlink:href="#STIXGeneral-Regular-31" x="1255.399597"/>
     <use xlink:href="#STIXGeneral-Regular-36" x="1305.399582"/>
     <use xlink:href="#STIXGeneral-Regular-2d" x="1355.399567"/>
     <use xlink:href="#STIXGeneral-Regular-30" x="1388.699554"/>
     <use xlink:href="#STIXGeneral-Regular-36" x="1438.699539"/>
     <use xlink:href="#STIXGeneral-Regular-2d" x="1488.699524"/>
     <use xlink:href="#STIXGeneral-Regular-32" x="1521.999512"/>
     <use xlink:href="#STIXGeneral-Regular-34" x="1571.999496"/>
    </g>
   </g>
   <g id="legend_1">
    <g id="patch_7">
     <path d="M 406.23 52.36125 
L 483.34 52.36125 
Q 485.54 52.36125 485.54 50.16125 
L 485.54 35.31125 
Q 485.54 33.11125 483.34 33.11125 
L 406.23 33.11125 
Q 404.03 33.11125 404.03 35.31125 
L 404.03 50.16125 
Q 404.03 52.36125 406.23 52.36125 
z
" style="fill: #ffffff; opacity: 0.8; stroke: #cccccc; stroke-linejoin: miter"/>
    </g>
    <g id="line2d_20">
     <path d="M 408.43 41.36125 
L 419.43 41.36125 
L 430.43 41.36125 
" style="fill: none; stroke: #653700; stroke-width: 0.75; stroke-linecap: round"/>
    </g>
    <g id="text_5">
     <!-- $r_{O:AND,k}$ -->
     <g style="fill: #262626" transform="translate(439.23 45.21125) scale(0.11 -0.11)">
      <defs>
       <path id="DejaVuSans-Oblique-72" d="M 2853 2969 
Q 2766 3016 2653 3041 
Q 2541 3066 2413 3066 
Q 1953 3066 1609 2717 
Q 1266 2369 1153 1784 
L 800 0 
L 225 0 
L 909 3500 
L 1484 3500 
L 1375 2956 
Q 1603 3259 1920 3421 
Q 2238 3584 2597 3584 
Q 2691 3584 2781 3573 
Q 2872 3563 2963 3538 
L 2853 2969 
z
" transform="scale(0.015625)"/>
       <path id="DejaVuSans-Oblique-4f" d="M 2919 4238 
Q 2400 4238 2003 3986 
Q 1606 3734 1313 3219 
Q 1125 2891 1026 2522 
Q 928 2153 928 1778 
Q 928 1128 1239 775 
Q 1550 422 2119 422 
Q 2631 422 3032 676 
Q 3434 931 3719 1434 
Q 3909 1772 4009 2142 
Q 4109 2513 4109 2881 
Q 4109 3528 3796 3883 
Q 3484 4238 2919 4238 
z
M 2100 -91 
Q 1241 -91 748 418 
Q 256 928 256 1813 
Q 256 2319 448 2847 
Q 641 3375 978 3788 
Q 1375 4272 1862 4511 
Q 2350 4750 2938 4750 
Q 3794 4750 4287 4245 
Q 4781 3741 4781 2869 
Q 4781 2331 4593 1812 
Q 4406 1294 4056 872 
Q 3656 384 3173 146 
Q 2691 -91 2100 -91 
z
" transform="scale(0.015625)"/>
       <path id="DejaVuSans-3a" d="M 750 794 
L 1409 794 
L 1409 0 
L 750 0 
L 750 794 
z
M 750 3309 
L 1409 3309 
L 1409 2516 
L 750 2516 
L 750 3309 
z
" transform="scale(0.015625)"/>
       <path id="DejaVuSans-Oblique-41" d="M 2356 4666 
L 3072 4666 
L 3938 0 
L 3278 0 
L 3084 1197 
L 984 1197 
L 325 0 
L -341 0 
L 2356 4666 
z
M 2584 4044 
L 1275 1722 
L 2988 1722 
L 2584 4044 
z
" transform="scale(0.015625)"/>
       <path id="DejaVuSans-Oblique-4e" d="M 1081 4666 
L 1931 4666 
L 3219 666 
L 4000 4666 
L 4616 4666 
L 3706 0 
L 2853 0 
L 1569 4025 
L 788 0 
L 172 0 
L 1081 4666 
z
" transform="scale(0.015625)"/>
       <path id="DejaVuSans-Oblique-44" d="M 1081 4666 
L 2438 4666 
Q 3519 4666 4070 4208 
Q 4622 3750 4622 2847 
Q 4622 2250 4412 1698 
Q 4203 1147 3834 769 
Q 3463 381 2891 190 
Q 2319 0 1538 0 
L 172 0 
L 1081 4666 
z
M 1613 4147 
L 909 519 
L 1734 519 
Q 2794 519 3375 1128 
Q 3956 1738 3956 2847 
Q 3956 3519 3581 3833 
Q 3206 4147 2406 4147 
L 1613 4147 
z
" transform="scale(0.015625)"/>
       <path id="DejaVuSans-2c" d="M 750 794 
L 1409 794 
L 1409 256 
L 897 -744 
L 494 -744 
L 750 256 
L 750 794 
z
" transform="scale(0.015625)"/>
       <path id="DejaVuSans-Oblique-6b" d="M 1172 4863 
L 1747 4863 
L 1197 2028 
L 3169 3500 
L 3916 3500 
L 1716 1825 
L 3322 0 
L 2625 0 
L 1131 1709 
L 800 0 
L 225 0 
L 1172 4863 
z
" transform="scale(0.015625)"/>
      </defs>
      <use xlink:href="#DejaVuSans-Oblique-72"/>
      <use xlink:href="#DejaVuSans-Oblique-4f" transform="translate(41.113281 -16.40625) scale(0.7)"/>
      <use xlink:href="#DejaVuSans-3a" transform="translate(109.848633 -16.40625) scale(0.7)"/>
      <use xlink:href="#DejaVuSans-Oblique-41" transform="translate(147.070312 -16.40625) scale(0.7)"/>
      <use xlink:href="#DejaVuSans-Oblique-4e" transform="translate(194.956055 -16.40625) scale(0.7)"/>
      <use xlink:href="#DejaVuSans-Oblique-44" transform="translate(247.319336 -16.40625) scale(0.7)"/>
      <use xlink:href="#DejaVuSans-2c" transform="translate(301.220703 -16.40625) scale(0.7)"/>
      <use xlink:href="#DejaVuSans-Oblique-6b" transform="translate(337.109375 -16.40625) scale(0.7)"/>
     </g>
    </g>
   </g>
  </g>
  <g id="axes_2">
   <g id="patch_8">
    <path d="M 49.28 204.37875 
L 491.04 204.37875 
L 491.04 125.475 
L 49.28 125.475 
z
" style="fill: #ffffff"/>
   </g>
   <g id="matplotlib.axis_3">
    <g id="xtick_7">
     <g id="line2d_21">
      <path d="M 51.005625 204.37875 
L 51.005625 125.475 
" clip-path="url(#p588b99c3e9)" style="fill: none; stroke-dasharray: 1,1.65; stroke-dashoffset: 0; stroke: #808080"/>
     </g>
     <g id="line2d_22">
      <g>
       <use xlink:href="#me2aa8a4432" x="51.005625" y="204.37875" style="fill: #262626; stroke: #262626; stroke-width: 1.25"/>
      </g>
     </g>
     <g id="text_6">
      <!-- 0 -->
      <g style="fill: #262626" transform="translate(48.255625 221.391406) scale(0.11 -0.11)">
       <use xlink:href="#STIXGeneral-Regular-30"/>
      </g>
     </g>
    </g>
    <g id="xtick_8">
     <g id="line2d_23">
      <path d="M 137.286875 204.37875 
L 137.286875 125.475 
" clip-path="url(#p588b99c3e9)" style="fill: none; stroke-dasharray: 1,1.65; stroke-dashoffset: 0; stroke: #808080"/>
     </g>
     <g id="line2d_24">
      <g>
       <use xlink:href="#me2aa8a4432" x="137.286875" y="204.37875" style="fill: #262626; stroke: #262626; stroke-width: 1.25"/>
      </g>
     </g>
     <g id="text_7">
      <!-- 50 -->
      <g style="fill: #262626" transform="translate(131.786875 221.391406) scale(0.11 -0.11)">
       <use xlink:href="#STIXGeneral-Regular-35"/>
       <use xlink:href="#STIXGeneral-Regular-30" x="49.999985"/>
      </g>
     </g>
    </g>
    <g id="xtick_9">
     <g id="line2d_25">
      <path d="M 223.568125 204.37875 
L 223.568125 125.475 
" clip-path="url(#p588b99c3e9)" style="fill: none; stroke-dasharray: 1,1.65; stroke-dashoffset: 0; stroke: #808080"/>
     </g>
     <g id="line2d_26">
      <g>
       <use xlink:href="#me2aa8a4432" x="223.568125" y="204.37875" style="fill: #262626; stroke: #262626; stroke-width: 1.25"/>
      </g>
     </g>
     <g id="text_8">
      <!-- 100 -->
      <g style="fill: #262626" transform="translate(215.318125 221.391406) scale(0.11 -0.11)">
       <use xlink:href="#STIXGeneral-Regular-31"/>
       <use xlink:href="#STIXGeneral-Regular-30" x="49.999985"/>
       <use xlink:href="#STIXGeneral-Regular-30" x="99.999969"/>
      </g>
     </g>
    </g>
    <g id="xtick_10">
     <g id="line2d_27">
      <path d="M 309.849375 204.37875 
L 309.849375 125.475 
" clip-path="url(#p588b99c3e9)" style="fill: none; stroke-dasharray: 1,1.65; stroke-dashoffset: 0; stroke: #808080"/>
     </g>
     <g id="line2d_28">
      <g>
       <use xlink:href="#me2aa8a4432" x="309.849375" y="204.37875" style="fill: #262626; stroke: #262626; stroke-width: 1.25"/>
      </g>
     </g>
     <g id="text_9">
      <!-- 150 -->
      <g style="fill: #262626" transform="translate(301.599375 221.391406) scale(0.11 -0.11)">
       <use xlink:href="#STIXGeneral-Regular-31"/>
       <use xlink:href="#STIXGeneral-Regular-35" x="49.999985"/>
       <use xlink:href="#STIXGeneral-Regular-30" x="99.999969"/>
      </g>
     </g>
    </g>
    <g id="xtick_11">
     <g id="line2d_29">
      <path d="M 396.130625 204.37875 
L 396.130625 125.475 
" clip-path="url(#p588b99c3e9)" style="fill: none; stroke-dasharray: 1,1.65; stroke-dashoffset: 0; stroke: #808080"/>
     </g>
     <g id="line2d_30">
      <g>
       <use xlink:href="#me2aa8a4432" x="396.130625" y="204.37875" style="fill: #262626; stroke: #262626; stroke-width: 1.25"/>
      </g>
     </g>
     <g id="text_10">
      <!-- 200 -->
      <g style="fill: #262626" transform="translate(387.880625 221.391406) scale(0.11 -0.11)">
       <use xlink:href="#STIXGeneral-Regular-32"/>
       <use xlink:href="#STIXGeneral-Regular-30" x="49.999985"/>
       <use xlink:href="#STIXGeneral-Regular-30" x="99.999969"/>
      </g>
     </g>
    </g>
    <g id="xtick_12">
     <g id="line2d_31">
      <path d="M 482.411875 204.37875 
L 482.411875 125.475 
" clip-path="url(#p588b99c3e9)" style="fill: none; stroke-dasharray: 1,1.65; stroke-dashoffset: 0; stroke: #808080"/>
     </g>
     <g id="line2d_32">
      <g>
       <use xlink:href="#me2aa8a4432" x="482.411875" y="204.37875" style="fill: #262626; stroke: #262626; stroke-width: 1.25"/>
      </g>
     </g>
     <g id="text_11">
      <!-- 250 -->
      <g style="fill: #262626" transform="translate(474.161875 221.391406) scale(0.11 -0.11)">
       <use xlink:href="#STIXGeneral-Regular-32"/>
       <use xlink:href="#STIXGeneral-Regular-35" x="49.999985"/>
       <use xlink:href="#STIXGeneral-Regular-30" x="99.999969"/>
      </g>
     </g>
    </g>
    <g id="text_12">
     <!-- Relative Index k -->
     <g style="fill: #262626" transform="translate(230.499063 235.974375) scale(0.12 -0.12)">
      <defs>
       <path id="STIXGeneral-Regular-52" d="M 4224 0 
L 3187 0 
L 1664 1971 
L 1306 1958 
L 1306 717 
Q 1306 352 1405 249 
Q 1504 147 1875 122 
L 1875 0 
L 109 0 
L 109 122 
Q 474 154 563 262 
Q 653 371 653 794 
L 653 3526 
Q 653 3885 563 3987 
Q 474 4090 109 4115 
L 109 4237 
L 1850 4237 
Q 2726 4237 3187 3859 
Q 3501 3603 3501 3091 
Q 3501 2221 2342 2042 
L 3622 422 
Q 3757 256 3878 198 
Q 4000 141 4224 122 
L 4224 0 
z
M 1306 3731 
L 1306 2195 
Q 1766 2202 1990 2246 
Q 2214 2291 2438 2413 
Q 2803 2618 2803 3142 
Q 2803 4000 1632 4000 
Q 1459 4000 1382 3945 
Q 1306 3891 1306 3731 
z
" transform="scale(0.015625)"/>
       <path id="STIXGeneral-Regular-65" d="M 2611 1050 
L 2714 1005 
Q 2330 -64 1376 -64 
Q 813 -64 486 329 
Q 160 723 160 1389 
Q 160 2074 525 2509 
Q 890 2944 1485 2944 
Q 2061 2944 2374 2502 
Q 2560 2246 2592 1773 
L 621 1773 
Q 646 1370 700 1158 
Q 755 947 915 730 
Q 1184 378 1626 378 
Q 1939 378 2153 531 
Q 2368 685 2611 1050 
z
M 634 1978 
L 1939 1978 
Q 1882 2381 1750 2547 
Q 1619 2714 1312 2714 
Q 1043 2714 864 2525 
Q 685 2336 634 1978 
z
" transform="scale(0.015625)"/>
       <path id="STIXGeneral-Regular-6c" d="M 1645 0 
L 134 0 
L 134 96 
Q 435 122 531 221 
Q 627 320 627 589 
L 627 3590 
Q 627 3821 569 3910 
Q 512 4000 358 4000 
Q 224 4000 122 3987 
L 122 4090 
Q 730 4237 1133 4371 
L 1165 4346 
L 1165 557 
Q 1165 288 1254 201 
Q 1344 115 1645 96 
L 1645 0 
z
" transform="scale(0.015625)"/>
       <path id="STIXGeneral-Regular-61" d="M 2829 422 
L 2829 243 
Q 2586 -64 2253 -64 
Q 1888 -64 1843 403 
L 1837 403 
Q 1427 -64 909 -64 
Q 608 -64 422 112 
Q 237 288 237 602 
Q 237 1050 685 1350 
Q 992 1555 1837 1869 
L 1837 2214 
Q 1837 2502 1699 2646 
Q 1562 2790 1338 2790 
Q 1146 2790 1018 2697 
Q 890 2605 890 2477 
Q 890 2419 909 2348 
Q 928 2278 928 2208 
Q 928 2112 841 2029 
Q 755 1946 634 1946 
Q 525 1946 441 2029 
Q 358 2112 358 2240 
Q 358 2547 685 2752 
Q 986 2944 1421 2944 
Q 1939 2944 2176 2656 
Q 2291 2522 2323 2384 
Q 2355 2246 2355 1946 
L 2355 723 
Q 2355 301 2554 301 
Q 2682 301 2829 422 
z
M 1837 813 
L 1837 1715 
Q 1248 1510 1018 1293 
Q 800 1094 800 800 
Q 800 557 921 432 
Q 1043 307 1242 307 
Q 1453 307 1613 410 
Q 1747 506 1792 589 
Q 1837 672 1837 813 
z
" transform="scale(0.015625)"/>
       <path id="STIXGeneral-Regular-69" d="M 1152 4045 
Q 1152 3904 1056 3811 
Q 960 3718 819 3718 
Q 685 3718 592 3811 
Q 499 3904 499 4045 
Q 499 4179 595 4275 
Q 691 4371 826 4371 
Q 966 4371 1059 4275 
Q 1152 4179 1152 4045 
z
M 1619 0 
L 102 0 
L 102 96 
Q 435 115 521 211 
Q 608 307 608 666 
L 608 2118 
Q 608 2342 563 2432 
Q 518 2522 397 2522 
Q 243 2522 128 2490 
L 128 2592 
L 1120 2944 
L 1146 2918 
L 1146 672 
Q 1146 314 1226 218 
Q 1306 122 1619 96 
L 1619 0 
z
" transform="scale(0.015625)"/>
       <path id="STIXGeneral-Regular-76" d="M 3053 2880 
L 3053 2784 
Q 2906 2771 2835 2688 
Q 2765 2605 2637 2285 
L 1818 230 
Q 1690 -90 1638 -90 
Q 1587 -90 1523 77 
Q 1510 96 1497 141 
Q 1485 186 1472 211 
L 704 2048 
Q 499 2534 403 2652 
Q 307 2771 122 2784 
L 122 2880 
L 1376 2880 
L 1376 2784 
Q 1210 2771 1146 2732 
Q 1082 2694 1082 2611 
Q 1082 2509 1139 2368 
L 1792 730 
L 2426 2387 
Q 2464 2483 2464 2579 
Q 2464 2758 2163 2784 
L 2163 2880 
L 3053 2880 
z
" transform="scale(0.015625)"/>
       <path id="STIXGeneral-Regular-49" d="M 2016 0 
L 115 0 
L 115 122 
Q 518 134 627 240 
Q 736 346 736 717 
L 736 3526 
Q 736 3898 633 3994 
Q 531 4090 115 4115 
L 115 4237 
L 2016 4237 
L 2016 4115 
Q 1613 4096 1501 3993 
Q 1389 3891 1389 3526 
L 1389 717 
Q 1389 358 1504 246 
Q 1619 134 2016 122 
L 2016 0 
z
" transform="scale(0.015625)"/>
       <path id="STIXGeneral-Regular-6e" d="M 3104 0 
L 1773 0 
L 1779 96 
Q 2016 115 2096 233 
Q 2176 352 2176 672 
L 2176 1946 
Q 2176 2592 1709 2592 
Q 1549 2592 1408 2515 
Q 1267 2438 1050 2227 
L 1050 461 
Q 1050 269 1136 192 
Q 1222 115 1466 96 
L 1466 0 
L 115 0 
L 115 96 
Q 358 115 435 214 
Q 512 314 512 602 
L 512 2157 
Q 512 2394 467 2483 
Q 422 2573 288 2573 
Q 160 2573 102 2547 
L 102 2656 
Q 550 2784 979 2944 
L 1030 2925 
L 1030 2426 
L 1037 2426 
Q 1491 2944 1958 2944 
Q 2323 2944 2518 2688 
Q 2714 2432 2714 1958 
L 2714 544 
Q 2714 288 2790 205 
Q 2867 122 3104 96 
L 3104 0 
z
" transform="scale(0.015625)"/>
       <path id="STIXGeneral-Regular-64" d="M 3142 269 
L 2202 -64 
L 2176 -45 
L 2176 365 
Q 1869 -64 1357 -64 
Q 826 -64 499 317 
Q 173 698 173 1312 
Q 173 1990 563 2467 
Q 954 2944 1504 2944 
Q 1850 2944 2176 2669 
L 2176 3667 
Q 2176 3866 2118 3930 
Q 2061 3994 1882 3994 
Q 1792 3994 1741 3987 
L 1741 4090 
Q 2323 4243 2682 4371 
L 2714 4358 
L 2714 730 
Q 2714 506 2768 435 
Q 2822 365 2995 365 
Q 3034 365 3142 371 
L 3142 269 
z
M 2176 653 
L 2176 2125 
Q 2176 2381 1981 2573 
Q 1786 2765 1523 2765 
Q 1158 2765 940 2438 
Q 723 2112 723 1568 
Q 723 979 963 624 
Q 1203 269 1606 269 
Q 1907 269 2080 474 
Q 2176 582 2176 653 
z
" transform="scale(0.015625)"/>
       <path id="STIXGeneral-Regular-78" d="M 3066 0 
L 1779 0 
L 1779 96 
Q 1939 109 1987 137 
Q 2035 166 2035 250 
Q 2035 307 1997 365 
L 1414 1261 
L 909 474 
Q 781 275 781 211 
Q 781 96 1037 96 
L 1037 0 
L 109 0 
L 109 96 
Q 269 109 355 169 
Q 442 230 576 422 
L 1306 1478 
L 704 2400 
Q 557 2624 454 2704 
Q 352 2784 211 2784 
L 154 2784 
L 154 2880 
L 1478 2880 
L 1478 2784 
Q 1203 2778 1203 2643 
Q 1203 2509 1498 2074 
Q 1581 1958 1587 1946 
Q 1619 1990 1779 2227 
Q 1811 2285 1856 2349 
Q 1901 2413 1923 2451 
Q 1946 2490 1971 2528 
Q 1997 2566 2006 2595 
Q 2016 2624 2016 2643 
Q 2016 2765 1760 2784 
L 1760 2880 
L 2771 2880 
L 2771 2784 
Q 2445 2771 2253 2502 
L 1722 1734 
L 2541 480 
Q 2790 96 3066 96 
L 3066 0 
z
" transform="scale(0.015625)"/>
       <path id="STIXGeneral-Regular-6b" d="M 3232 0 
L 1837 0 
L 1837 96 
L 1958 96 
Q 2093 96 2093 192 
Q 2093 250 2022 339 
L 1062 1606 
L 1062 429 
Q 1062 262 1142 185 
Q 1222 109 1414 102 
L 1542 96 
L 1542 0 
L 45 0 
L 45 96 
Q 390 154 457 214 
Q 525 275 525 525 
L 525 3610 
Q 525 3840 467 3920 
Q 410 4000 250 4000 
Q 211 4000 45 3987 
L 45 4090 
L 237 4141 
Q 621 4243 1037 4371 
L 1062 4358 
L 1062 1670 
L 1939 2451 
Q 2086 2586 2086 2675 
Q 2086 2739 2019 2761 
Q 1952 2784 1766 2790 
L 1766 2880 
L 3072 2880 
L 3072 2784 
Q 2752 2784 2505 2646 
Q 2259 2509 1690 1978 
L 1504 1805 
L 2483 563 
Q 2829 122 3232 96 
L 3232 0 
z
" transform="scale(0.015625)"/>
      </defs>
      <use xlink:href="#STIXGeneral-Regular-52"/>
      <use xlink:href="#STIXGeneral-Regular-65" x="66.699997"/>
      <use xlink:href="#STIXGeneral-Regular-6c" x="111.099991"/>
      <use xlink:href="#STIXGeneral-Regular-61" x="138.899979"/>
      <use xlink:href="#STIXGeneral-Regular-74" x="183.299973"/>
      <use xlink:href="#STIXGeneral-Regular-69" x="211.09996"/>
      <use xlink:href="#STIXGeneral-Regular-76" x="238.899948"/>
      <use xlink:href="#STIXGeneral-Regular-65" x="288.899933"/>
      <use xlink:href="#STIXGeneral-Regular-20" x="333.299927"/>
      <use xlink:href="#STIXGeneral-Regular-49" x="358.299911"/>
      <use xlink:href="#STIXGeneral-Regular-6e" x="391.599899"/>
      <use xlink:href="#STIXGeneral-Regular-64" x="441.599884"/>
      <use xlink:href="#STIXGeneral-Regular-65" x="491.599869"/>
      <use xlink:href="#STIXGeneral-Regular-78" x="535.999863"/>
      <use xlink:href="#STIXGeneral-Regular-20" x="585.999847"/>
      <use xlink:href="#STIXGeneral-Regular-6b" x="610.999832"/>
     </g>
    </g>
   </g>
   <g id="matplotlib.axis_4">
    <g id="ytick_4">
     <g id="line2d_33">
      <path d="M 49.28 183.876676 
L 491.04 183.876676 
" clip-path="url(#p588b99c3e9)" style="fill: none; stroke-dasharray: 1,1.65; stroke-dashoffset: 0; stroke: #808080"/>
     </g>
     <g id="line2d_34">
      <g>
       <use xlink:href="#m36c8f918a8" x="49.28" y="183.876676" style="fill: #262626; stroke: #262626; stroke-width: 1.25"/>
      </g>
     </g>
     <g id="text_13">
      <!-- 0.018 -->
      <g style="fill: #262626" transform="translate(15.03 187.633004) scale(0.11 -0.11)">
       <defs>
        <path id="STIXGeneral-Regular-38" d="M 2848 992 
Q 2848 499 2505 204 
Q 2163 -90 1587 -90 
Q 1050 -90 704 204 
Q 358 499 358 954 
Q 358 1293 524 1533 
Q 691 1773 1190 2125 
Q 710 2522 553 2765 
Q 397 3008 397 3328 
Q 397 3782 745 4054 
Q 1094 4326 1638 4326 
Q 2106 4326 2410 4060 
Q 2714 3795 2714 3411 
Q 2714 3059 2531 2848 
Q 2349 2637 1856 2374 
Q 2432 1990 2640 1689 
Q 2848 1389 2848 992 
z
M 2272 3411 
Q 2272 3744 2086 3945 
Q 1901 4147 1574 4147 
Q 1248 4147 1059 3977 
Q 870 3808 870 3513 
Q 870 3219 1059 2979 
Q 1248 2739 1670 2490 
Q 1997 2682 2134 2896 
Q 2272 3110 2272 3411 
z
M 1734 1741 
L 1357 1997 
Q 1075 1766 960 1545 
Q 845 1325 845 1011 
Q 845 576 1065 333 
Q 1286 90 1658 90 
Q 1971 90 2166 285 
Q 2362 480 2362 794 
Q 2362 1082 2214 1299 
Q 2067 1517 1734 1741 
z
" transform="scale(0.015625)"/>
       </defs>
       <use xlink:href="#STIXGeneral-Regular-30"/>
       <use xlink:href="#STIXGeneral-Regular-2e" x="49.999985"/>
       <use xlink:href="#STIXGeneral-Regular-30" x="74.999969"/>
       <use xlink:href="#STIXGeneral-Regular-31" x="124.999954"/>
       <use xlink:href="#STIXGeneral-Regular-38" x="174.999939"/>
      </g>
     </g>
    </g>
    <g id="ytick_5">
     <g id="line2d_35">
      <path d="M 49.28 156.461014 
L 491.04 156.461014 
" clip-path="url(#p588b99c3e9)" style="fill: none; stroke-dasharray: 1,1.65; stroke-dashoffset: 0; stroke: #808080"/>
     </g>
     <g id="line2d_36">
      <g>
       <use xlink:href="#m36c8f918a8" x="49.28" y="156.461014" style="fill: #262626; stroke: #262626; stroke-width: 1.25"/>
      </g>
     </g>
     <g id="text_14">
      <!-- 0.020 -->
      <g style="fill: #262626" transform="translate(15.03 160.217342) scale(0.11 -0.11)">
       <use xlink:href="#STIXGeneral-Regular-30"/>
       <use xlink:href="#STIXGeneral-Regular-2e" x="49.999985"/>
       <use xlink:href="#STIXGeneral-Regular-30" x="74.999969"/>
       <use xlink:href="#STIXGeneral-Regular-32" x="124.999954"/>
       <use xlink:href="#STIXGeneral-Regular-30" x="174.999939"/>
      </g>
     </g>
    </g>
    <g id="ytick_6">
     <g id="line2d_37">
      <path d="M 49.28 129.045352 
L 491.04 129.045352 
" clip-path="url(#p588b99c3e9)" style="fill: none; stroke-dasharray: 1,1.65; stroke-dashoffset: 0; stroke: #808080"/>
     </g>
     <g id="line2d_38">
      <g>
       <use xlink:href="#m36c8f918a8" x="49.28" y="129.045352" style="fill: #262626; stroke: #262626; stroke-width: 1.25"/>
      </g>
     </g>
     <g id="text_15">
      <!-- 0.022 -->
      <g style="fill: #262626" transform="translate(15.03 132.801681) scale(0.11 -0.11)">
       <use xlink:href="#STIXGeneral-Regular-30"/>
       <use xlink:href="#STIXGeneral-Regular-2e" x="49.999985"/>
       <use xlink:href="#STIXGeneral-Regular-30" x="74.999969"/>
       <use xlink:href="#STIXGeneral-Regular-32" x="124.999954"/>
       <use xlink:href="#STIXGeneral-Regular-32" x="174.999939"/>
      </g>
     </g>
    </g>
   </g>
   <g id="PolyCollection_2"/>
   <g id="PathCollection_1">
    <defs>
     <path id="m4773345a67" d="M -1.5 3 
L 0 1.5 
L 1.5 3 
L 3 1.5 
L 1.5 0 
L 3 -1.5 
L 1.5 -3 
L 0 -1.5 
L -1.5 -3 
L -3 -1.5 
L -1.5 0 
L -3 1.5 
z
" style="stroke: #ffffff; stroke-width: 0.48"/>
    </defs>
    <g clip-path="url(#p588b99c3e9)">
     <use xlink:href="#m4773345a67" x="482.411875" y="178.704365" style="fill: #380282; stroke: #ffffff; stroke-width: 0.48"/>
    </g>
   </g>
   <g id="line2d_39">
    <path d="M 51.005625 161.171157 
L 52.73125 157.50747 
L 54.456875 161.92773 
L 56.1825 165.803439 
L 57.908125 172.290273 
L 61.359375 182.240944 
L 63.085 177.731692 
L 64.810625 176.318012 
L 66.53625 175.408023 
L 68.261875 180.365442 
L 69.9875 183.199551 
L 71.713125 180.11289 
L 73.43875 184.222223 
L 75.164375 187.859117 
L 76.89 191.086476 
L 78.615625 178.776719 
L 82.066875 186.730769 
L 83.7925 189.02983 
L 85.518125 191.981635 
L 87.24375 184.785038 
L 88.969375 184.10239 
L 90.695 176.875574 
L 92.420625 145.45576 
L 94.14625 138.264 
L 95.871875 149.026206 
L 97.5975 155.695431 
L 99.323125 163.710813 
L 101.04875 170.248469 
L 102.774375 166.12054 
L 104.5 165.860219 
L 106.225625 161.918234 
L 107.95125 159.070023 
L 109.676875 163.129039 
L 111.4025 157.026934 
L 113.128125 161.58877 
L 114.85375 167.818097 
L 116.579375 164.76234 
L 118.305 163.869981 
L 120.030625 170.84581 
L 121.75625 176.296807 
L 123.481875 179.507455 
L 125.2075 174.544156 
L 126.933125 179.917902 
L 130.384375 187.240612 
L 132.11 189.547856 
L 133.835625 191.575407 
L 135.56125 189.073509 
L 137.286875 188.81015 
L 139.0125 164.575812 
L 140.738125 170.587124 
L 142.46375 170.862869 
L 144.189375 175.372014 
L 145.915 162.523551 
L 147.640625 158.919054 
L 149.36625 165.160955 
L 151.091875 172.060622 
L 156.26875 184.950152 
L 157.994375 181.539431 
L 159.72 184.532494 
L 161.445625 187.07004 
L 163.17125 190.390677 
L 164.896875 192.917917 
L 166.6225 195.061552 
L 168.348125 194.173812 
L 170.07375 196.318782 
L 171.799375 181.154396 
L 173.525 182.904633 
L 175.250625 186.899557 
L 176.97625 189.460122 
L 178.701875 189.967372 
L 180.4275 171.334468 
L 182.153125 176.944961 
L 183.87875 181.990152 
L 185.604375 184.751402 
L 187.33 186.915649 
L 189.055625 190.308301 
L 190.78125 193.130148 
L 192.506875 195.425659 
L 195.958125 198.683184 
L 197.68375 199.686537 
L 199.409375 172.6791 
L 202.860625 182.011874 
L 204.58625 184.446508 
L 206.311875 185.601117 
L 208.0375 189.20944 
L 209.763125 191.786047 
L 211.48875 189.589683 
L 213.214375 192.234543 
L 214.94 194.158543 
L 216.665625 196.319683 
L 218.39125 196.936755 
L 220.116875 192.168978 
L 221.8425 192.357085 
L 223.568125 193.862939 
L 225.29375 195.954238 
L 227.019375 197.766385 
L 228.745 199.30295 
L 230.470625 199.933233 
L 232.19625 192.126473 
L 233.921875 194.623594 
L 235.6475 192.871963 
L 237.373125 195.256398 
L 239.09875 151.389509 
L 240.824375 157.443885 
L 242.55 159.590779 
L 244.275625 164.539782 
L 247.726875 175.448047 
L 249.4525 177.91193 
L 251.178125 180.865815 
L 252.90375 184.241573 
L 254.629375 186.50218 
L 256.355 189.878592 
L 258.080625 192.773398 
L 259.80625 195.174719 
L 261.531875 196.957546 
L 263.2575 196.481132 
L 266.70875 199.568158 
L 268.434375 200.792216 
L 270.16 183.574574 
L 271.885625 184.000858 
L 273.61125 187.883612 
L 275.336875 189.640342 
L 277.0625 188.827021 
L 280.51375 193.677187 
L 282.239375 190.357354 
L 283.965 184.017512 
L 285.690625 187.055755 
L 287.41625 186.855615 
L 289.141875 181.263693 
L 290.8675 177.426995 
L 292.593125 180.203703 
L 294.31875 171.371545 
L 297.77 181.719729 
L 299.495625 185.982414 
L 301.22125 181.759341 
L 302.946875 179.612226 
L 304.6725 184.170565 
L 306.398125 186.982346 
L 308.12375 179.783623 
L 309.849375 183.372637 
L 311.575 186.527512 
L 313.300625 166.989285 
L 315.02625 173.627102 
L 316.751875 179.171172 
L 318.4775 172.556304 
L 320.203125 173.836505 
L 321.92875 166.356038 
L 323.654375 173.062847 
L 325.38 129.061534 
L 327.105625 136.609978 
L 328.83125 147.059368 
L 332.2825 161.799636 
L 334.008125 159.913 
L 335.73375 167.06683 
L 337.459375 166.288887 
L 339.185 168.415508 
L 340.910625 172.988653 
L 342.63625 177.070454 
L 344.361875 182.014137 
L 346.0875 156.445625 
L 347.813125 158.538469 
L 349.53875 166.003244 
L 351.264375 171.342892 
L 352.99 167.146303 
L 354.715625 173.741781 
L 356.44125 172.747796 
L 358.166875 178.120926 
L 359.8925 182.688727 
L 361.618125 186.422267 
L 363.34375 187.363788 
L 365.069375 190.634947 
L 366.795 191.40273 
L 368.520625 193.982523 
L 370.24625 178.737658 
L 371.971875 183.48985 
L 373.6975 187.457635 
L 375.423125 188.961128 
L 377.14875 188.84203 
L 378.874375 191.886756 
L 380.6 194.235756 
L 382.325625 192.62666 
L 384.05125 187.285026 
L 385.776875 188.269835 
L 387.5025 190.4769 
L 389.228125 191.664843 
L 390.95375 194.25702 
L 392.679375 195.521747 
L 394.405 195.661973 
L 396.130625 189.825128 
L 399.581875 193.863184 
L 401.3075 184.892645 
L 403.033125 188.490354 
L 404.75875 189.102729 
L 406.484375 191.972883 
L 408.21 193.21796 
L 409.935625 195.544525 
L 411.66125 197.239949 
L 413.386875 194.820269 
L 415.1125 196.869793 
L 416.838125 197.335456 
L 418.56375 188.019269 
L 420.289375 181.418823 
L 422.015 185.729853 
L 425.46625 191.889564 
L 427.191875 194.427294 
L 428.9175 194.869573 
L 430.643125 195.780391 
L 432.36875 197.651424 
L 434.094375 199.210341 
L 435.82 200.134587 
L 437.545625 199.821813 
L 439.27125 200.466687 
L 440.996875 196.123032 
L 442.7225 197.944727 
L 444.448125 195.870398 
L 447.899375 199.109191 
L 449.625 199.357943 
L 451.350625 200.619664 
L 453.07625 199.696316 
L 454.801875 199.442655 
L 456.5275 200.65243 
L 458.253125 195.36013 
L 459.97875 197.225708 
L 461.704375 195.37139 
L 463.43 192.357203 
L 465.155625 190.891583 
L 466.88125 187.17099 
L 468.606875 185.195798 
L 470.3325 188.136316 
L 472.058125 176.848187 
L 473.78375 172.812712 
L 477.235 162.485054 
L 478.960625 169.230089 
L 480.68625 174.041269 
L 480.68625 174.041269 
" clip-path="url(#p588b99c3e9)" style="fill: none; stroke: #7e1e9c; stroke-width: 0.5; stroke-linecap: round"/>
   </g>
   <g id="patch_9">
    <path d="M 49.28 204.37875 
L 49.28 125.475 
" style="fill: none; stroke: #262626; stroke-width: 1.25; stroke-linejoin: miter; stroke-linecap: square"/>
   </g>
   <g id="patch_10">
    <path d="M 491.04 204.37875 
L 491.04 125.475 
" style="fill: none; stroke: #262626; stroke-width: 1.25; stroke-linejoin: miter; stroke-linecap: square"/>
   </g>
   <g id="patch_11">
    <path d="M 49.28 204.37875 
L 491.04 204.37875 
" style="fill: none; stroke: #262626; stroke-width: 1.25; stroke-linejoin: miter; stroke-linecap: square"/>
   </g>
   <g id="patch_12">
    <path d="M 49.28 125.475 
L 491.04 125.475 
" style="fill: none; stroke: #262626; stroke-width: 1.25; stroke-linejoin: miter; stroke-linecap: square"/>
   </g>
   <g id="legend_2">
    <g id="patch_13">
     <path d="M 369.27 166.835 
L 483.34 166.835 
Q 485.54 166.835 485.54 164.635 
L 485.54 133.175 
Q 485.54 130.975 483.34 130.975 
L 369.27 130.975 
Q 367.07 130.975 367.07 133.175 
L 367.07 164.635 
Q 367.07 166.835 369.27 166.835 
z
" style="fill: #ffffff; opacity: 0.8; stroke: #cccccc; stroke-linejoin: miter"/>
    </g>
    <g id="line2d_40">
     <path d="M 371.47 139.225 
L 382.47 139.225 
L 393.47 139.225 
" style="fill: none; stroke: #7e1e9c; stroke-width: 0.5; stroke-linecap: round"/>
    </g>
    <g id="text_16">
     <!-- $\sigma_{O:AND,k,cond}$ -->
     <g style="fill: #262626" transform="translate(402.27 143.075) scale(0.11 -0.11)">
      <defs>
       <path id="DejaVuSans-Oblique-3c3" d="M 2219 3044 
Q 1744 3044 1422 2700 
Q 1081 2341 969 1747 
Q 844 1119 1044 756 
Q 1241 397 1706 397 
Q 2166 397 2503 759 
Q 2844 1122 2966 1747 
Q 3075 2319 2881 2700 
Q 2700 3044 2219 3044 
z
M 2309 3503 
L 4219 3500 
L 4106 2925 
L 3463 2925 
Q 3706 2438 3575 1747 
Q 3406 888 2884 400 
Q 2359 -91 1609 -91 
Q 856 -91 525 400 
Q 194 888 363 1747 
Q 528 2609 1050 3097 
Q 1484 3503 2309 3503 
z
" transform="scale(0.015625)"/>
       <path id="DejaVuSans-Oblique-63" d="M 3431 3366 
L 3316 2797 
Q 3109 2947 2876 3022 
Q 2644 3097 2394 3097 
Q 2119 3097 1870 3000 
Q 1622 2903 1453 2725 
Q 1184 2453 1037 2087 
Q 891 1722 891 1331 
Q 891 859 1127 628 
Q 1363 397 1844 397 
Q 2081 397 2348 469 
Q 2616 541 2906 684 
L 2797 116 
Q 2547 13 2283 -39 
Q 2019 -91 1741 -91 
Q 1044 -91 669 257 
Q 294 606 294 1253 
Q 294 1797 489 2255 
Q 684 2713 1069 3078 
Q 1331 3328 1684 3456 
Q 2038 3584 2456 3584 
Q 2700 3584 2940 3529 
Q 3181 3475 3431 3366 
z
" transform="scale(0.015625)"/>
       <path id="DejaVuSans-Oblique-6f" d="M 1625 -91 
Q 1009 -91 651 289 
Q 294 669 294 1325 
Q 294 1706 417 2101 
Q 541 2497 738 2766 
Q 1047 3184 1428 3384 
Q 1809 3584 2291 3584 
Q 2888 3584 3255 3212 
Q 3622 2841 3622 2241 
Q 3622 1825 3500 1412 
Q 3378 1000 3181 728 
Q 2875 309 2494 109 
Q 2113 -91 1625 -91 
z
M 891 1344 
Q 891 869 1089 633 
Q 1288 397 1691 397 
Q 2269 397 2648 901 
Q 3028 1406 3028 2181 
Q 3028 2634 2825 2865 
Q 2622 3097 2228 3097 
Q 1903 3097 1650 2945 
Q 1397 2794 1197 2484 
Q 1050 2253 970 1956 
Q 891 1659 891 1344 
z
" transform="scale(0.015625)"/>
       <path id="DejaVuSans-Oblique-6e" d="M 3566 2113 
L 3156 0 
L 2578 0 
L 2988 2091 
Q 3016 2238 3031 2350 
Q 3047 2463 3047 2528 
Q 3047 2791 2881 2937 
Q 2716 3084 2419 3084 
Q 1956 3084 1622 2776 
Q 1288 2469 1184 1941 
L 800 0 
L 225 0 
L 903 3500 
L 1478 3500 
L 1363 2950 
Q 1603 3253 1940 3418 
Q 2278 3584 2650 3584 
Q 3113 3584 3367 3334 
Q 3622 3084 3622 2631 
Q 3622 2519 3608 2391 
Q 3594 2263 3566 2113 
z
" transform="scale(0.015625)"/>
       <path id="DejaVuSans-Oblique-64" d="M 2675 525 
Q 2444 222 2128 65 
Q 1813 -91 1428 -91 
Q 903 -91 598 267 
Q 294 625 294 1247 
Q 294 1766 478 2236 
Q 663 2706 1013 3078 
Q 1244 3325 1534 3454 
Q 1825 3584 2144 3584 
Q 2481 3584 2739 3421 
Q 2997 3259 3138 2956 
L 3513 4863 
L 4091 4863 
L 3144 0 
L 2566 0 
L 2675 525 
z
M 891 1350 
Q 891 897 1095 644 
Q 1300 391 1663 391 
Q 1931 391 2161 520 
Q 2391 650 2566 903 
Q 2750 1166 2856 1509 
Q 2963 1853 2963 2188 
Q 2963 2622 2758 2865 
Q 2553 3109 2194 3109 
Q 1922 3109 1687 2981 
Q 1453 2853 1288 2613 
Q 1106 2353 998 2009 
Q 891 1666 891 1350 
z
" transform="scale(0.015625)"/>
      </defs>
      <use xlink:href="#DejaVuSans-Oblique-3c3" transform="translate(0 0.265625)"/>
      <use xlink:href="#DejaVuSans-Oblique-4f" transform="translate(63.378906 -16.140625) scale(0.7)"/>
      <use xlink:href="#DejaVuSans-3a" transform="translate(132.114258 -16.140625) scale(0.7)"/>
      <use xlink:href="#DejaVuSans-Oblique-41" transform="translate(169.335938 -16.140625) scale(0.7)"/>
      <use xlink:href="#DejaVuSans-Oblique-4e" transform="translate(217.22168 -16.140625) scale(0.7)"/>
      <use xlink:href="#DejaVuSans-Oblique-44" transform="translate(269.584961 -16.140625) scale(0.7)"/>
      <use xlink:href="#DejaVuSans-2c" transform="translate(323.486328 -16.140625) scale(0.7)"/>
      <use xlink:href="#DejaVuSans-Oblique-6b" transform="translate(359.375 -16.140625) scale(0.7)"/>
      <use xlink:href="#DejaVuSans-2c" transform="translate(399.912109 -16.140625) scale(0.7)"/>
      <use xlink:href="#DejaVuSans-Oblique-63" transform="translate(435.800781 -16.140625) scale(0.7)"/>
      <use xlink:href="#DejaVuSans-Oblique-6f" transform="translate(474.287109 -16.140625) scale(0.7)"/>
      <use xlink:href="#DejaVuSans-Oblique-6e" transform="translate(517.114258 -16.140625) scale(0.7)"/>
      <use xlink:href="#DejaVuSans-Oblique-64" transform="translate(561.479492 -16.140625) scale(0.7)"/>
     </g>
    </g>
    <g id="PathCollection_2">
     <g>
      <use xlink:href="#m4773345a67" x="382.47" y="156.1375" style="fill: #380282; stroke: #ffffff; stroke-width: 0.48"/>
     </g>
    </g>
    <g id="text_17">
     <!-- $\sigma_{O:AND,t+1,pred}$ -->
     <g style="fill: #262626" transform="translate(402.27 159.025) scale(0.11 -0.11)">
      <defs>
       <path id="DejaVuSans-Oblique-74" d="M 2706 3500 
L 2619 3053 
L 1472 3053 
L 1100 1153 
Q 1081 1047 1072 975 
Q 1063 903 1063 863 
Q 1063 663 1183 572 
Q 1303 481 1569 481 
L 2150 481 
L 2053 0 
L 1503 0 
Q 991 0 739 200 
Q 488 400 488 806 
Q 488 878 497 964 
Q 506 1050 525 1153 
L 897 3053 
L 409 3053 
L 500 3500 
L 978 3500 
L 1172 4494 
L 1747 4494 
L 1556 3500 
L 2706 3500 
z
" transform="scale(0.015625)"/>
       <path id="DejaVuSans-2b" d="M 2944 4013 
L 2944 2272 
L 4684 2272 
L 4684 1741 
L 2944 1741 
L 2944 0 
L 2419 0 
L 2419 1741 
L 678 1741 
L 678 2272 
L 2419 2272 
L 2419 4013 
L 2944 4013 
z
" transform="scale(0.015625)"/>
       <path id="DejaVuSans-31" d="M 794 531 
L 1825 531 
L 1825 4091 
L 703 3866 
L 703 4441 
L 1819 4666 
L 2450 4666 
L 2450 531 
L 3481 531 
L 3481 0 
L 794 0 
L 794 531 
z
" transform="scale(0.015625)"/>
       <path id="DejaVuSans-Oblique-70" d="M 3175 2156 
Q 3175 2616 2975 2859 
Q 2775 3103 2400 3103 
Q 2144 3103 1911 2972 
Q 1678 2841 1497 2591 
Q 1319 2344 1212 1994 
Q 1106 1644 1106 1300 
Q 1106 863 1306 627 
Q 1506 391 1875 391 
Q 2147 391 2380 519 
Q 2613 647 2778 891 
Q 2956 1147 3065 1494 
Q 3175 1841 3175 2156 
z
M 1394 2969 
Q 1625 3272 1939 3428 
Q 2253 3584 2638 3584 
Q 3175 3584 3472 3232 
Q 3769 2881 3769 2247 
Q 3769 1728 3584 1258 
Q 3400 788 3053 416 
Q 2822 169 2531 39 
Q 2241 -91 1919 -91 
Q 1547 -91 1294 64 
Q 1041 219 916 525 
L 556 -1331 
L -19 -1331 
L 922 3500 
L 1497 3500 
L 1394 2969 
z
" transform="scale(0.015625)"/>
       <path id="DejaVuSans-Oblique-65" d="M 3078 2063 
Q 3088 2113 3092 2166 
Q 3097 2219 3097 2272 
Q 3097 2653 2873 2875 
Q 2650 3097 2266 3097 
Q 1838 3097 1509 2826 
Q 1181 2556 1013 2059 
L 3078 2063 
z
M 3578 1613 
L 903 1613 
Q 884 1494 878 1425 
Q 872 1356 872 1306 
Q 872 872 1139 634 
Q 1406 397 1894 397 
Q 2269 397 2603 481 
Q 2938 566 3225 728 
L 3116 159 
Q 2806 34 2476 -28 
Q 2147 -91 1806 -91 
Q 1078 -91 686 257 
Q 294 606 294 1247 
Q 294 1794 489 2264 
Q 684 2734 1063 3103 
Q 1306 3334 1642 3459 
Q 1978 3584 2356 3584 
Q 2950 3584 3301 3228 
Q 3653 2872 3653 2272 
Q 3653 2128 3634 1964 
Q 3616 1800 3578 1613 
z
" transform="scale(0.015625)"/>
      </defs>
      <use xlink:href="#DejaVuSans-Oblique-3c3" transform="translate(0 0.265625)"/>
      <use xlink:href="#DejaVuSans-Oblique-4f" transform="translate(63.378906 -16.140625) scale(0.7)"/>
      <use xlink:href="#DejaVuSans-3a" transform="translate(132.114258 -16.140625) scale(0.7)"/>
      <use xlink:href="#DejaVuSans-Oblique-41" transform="translate(169.335938 -16.140625) scale(0.7)"/>
      <use xlink:href="#DejaVuSans-Oblique-4e" transform="translate(217.22168 -16.140625) scale(0.7)"/>
      <use xlink:href="#DejaVuSans-Oblique-44" transform="translate(269.584961 -16.140625) scale(0.7)"/>
      <use xlink:href="#DejaVuSans-2c" transform="translate(323.486328 -16.140625) scale(0.7)"/>
      <use xlink:href="#DejaVuSans-Oblique-74" transform="translate(359.375 -16.140625) scale(0.7)"/>
      <use xlink:href="#DejaVuSans-2b" transform="translate(400.458984 -16.140625) scale(0.7)"/>
      <use xlink:href="#DejaVuSans-31" transform="translate(472.749023 -16.140625) scale(0.7)"/>
      <use xlink:href="#DejaVuSans-2c" transform="translate(517.285156 -16.140625) scale(0.7)"/>
      <use xlink:href="#DejaVuSans-Oblique-70" transform="translate(553.173828 -16.140625) scale(0.7)"/>
      <use xlink:href="#DejaVuSans-Oblique-72" transform="translate(597.607422 -16.140625) scale(0.7)"/>
      <use xlink:href="#DejaVuSans-Oblique-65" transform="translate(626.386719 -16.140625) scale(0.7)"/>
      <use xlink:href="#DejaVuSans-Oblique-64" transform="translate(669.453125 -16.140625) scale(0.7)"/>
     </g>
    </g>
   </g>
  </g>
 </g>
 <defs>
  <clipPath id="p9162d4a86e">
   <rect x="49.28" y="27.61125" width="441.76" height="78.90375"/>
  </clipPath>
  <clipPath id="p588b99c3e9">
   <rect x="49.28" y="125.475" width="441.76" height="78.90375"/>
  </clipPath>
 </defs>
</svg>
